<svg data-name="Layer 1" xmlns="http://www.w3.org/2000/svg" viewBox="0 0 64 40.93"><title>taxonomy with category summary content block type</title><path d="M59.75,35.93a5,5,0,0,1-5,5H11.25a5,5,0,0,1-5-5V5a5,5,0,0,1,5-5h43.5a5,5,0,0,1,5,5Z"/><path style="fill:#fff;" d="M21.47,24.37l-2.32,2.3a2.86,2.86,0,0,1-4,0L14.47,26a2.86,2.86,0,0,1,0-4l2.64-2.64a2.86,2.86,0,0,1,4,0l1,1a.68.68,0,0,0,1-1l-1-1a4.22,4.22,0,0,0-6,0L13.5,21a4.22,4.22,0,0,0,0,6l.64.64a4.22,4.22,0,0,0,6,0l2.32-2.32a.66.66,0,0,0,0-.94l0,0A.68.68,0,0,0,21.47,24.37Z"/><path style="fill:#fff;" d="M21.28,13.28l-2,2a.68.68,0,0,0,1,1l2-2a2.86,2.86,0,0,1,4,0l.64.64a2.86,2.86,0,0,1,0,4l-2.32,2.32a2.86,2.86,0,0,1-4,0l-.91-.95a.68.68,0,0,0-1,1l1,1a4.22,4.22,0,0,0,6,0l2.3-2.32a4.22,4.22,0,0,0,0-6l-.64-.64A4.22,4.22,0,0,0,21.28,13.28Z"/><path style="fill:#fff;" d="M52.84,24V13.45a1.76,1.76,0,0,0-1.75-1.75H40.55a1.76,1.76,0,0,0-1.75,1.75V24a1.76,1.76,0,0,0,1.75,1.75H51.08A1.76,1.76,0,0,0,52.84,24ZM35.29,15.2V27.48A1.76,1.76,0,0,0,37,29.24H49.33V27.48H37V15.2Z"/><path d="M49.5,20.05H44.64a.52.52,0,1,0-.12,1h5a.52.52,0,0,0,0-1m0-2.19H44.64a.52.52,0,0,0-.12,1h5a.52.52,0,0,0,0-1m0-2.2H44.64a.52.52,0,1,0-.12,1h5a.52.52,0,0,0,0-1"/><circle cx="43.01" cy="16.19" r="0.52"/><circle cx="43.01" cy="18.4" r="0.52"/><circle cx="43.01" cy="20.61" r="0.52"/></svg>
