<svg data-name="Layer 1" xmlns="http://www.w3.org/2000/svg" viewBox="0 0 64 40.93"><title>taxonomy with products content block type</title><path d="M58.75 35.93a5 5 0 0 1-5 5h-43.5a5 5 0 0 1-5-5V5a5 5 0 0 1 5-5h43.5a5 5 0 0 1 5 5z"/><path style="fill:#fff;" d="M15.28 23.45l-1.77 1.76a2.18 2.18 0 0 1-3.09 0l-.49-.49a2.18 2.18 0 0 1 0-3.09l2-2a2.18 2.18 0 0 1 3.09 0l.73.73a.52.52 0 0 0 .73-.73l-.73-.73a3.23 3.23 0 0 0-4.56 0l-2 2a3.23 3.23 0 0 0 0 4.56l.49.49a3.23 3.23 0 0 0 4.56 0L16 24.17a.51.51 0 0 0 0-.72.52.52 0 0 0-.72 0z"/><path style="fill:#fff;" d="M15.14 15l-1.57 1.5a.52.52 0 0 0 .73.73l1.53-1.53a2.18 2.18 0 0 1 3.09 0l.49.49a2.18 2.18 0 0 1 0 3.09l-1.77 1.77a2.18 2.18 0 0 1-3.09 0l-.7-.73a.52.52 0 0 0-.73.73l.73.73a3.23 3.23 0 0 0 4.56 0L20.17 20a3.23 3.23 0 0 0 0-4.56l-.49-.44a3.23 3.23 0 0 0-4.54 0z"/><rect style="fill:#fff;" x="23.67" y="13.69" width="10.18" height="13.56" rx="3.46" ry="3.46"/><rect style="fill:#fff;" x="35.12" y="13.69" width="10.18" height="13.56" rx="3.46" ry="3.46"/><rect style="fill:#fff;" x="46.57" y="13.69" width="10.18" height="13.56" rx="3.46" ry="3.46"/><path d="M43 18.66l-2-.48a.19.19 0 0 0-.17 0 .48.48 0 0 1-1 0 .19.19 0 0 0-.17 0l-2 .48a.19.19 0 0 0-.15.22l.25 1.25a.19.19 0 0 0 .19.15h.69v2.27a.19.19 0 0 0 .19.19h2.94a.19.19 0 0 0 .19-.19v-2.28h.69a.19.19 0 0 0 .19-.15l.25-1.25a.19.19 0 0 0-.09-.21zm11.43 0l-2-.48a.19.19 0 0 0-.17 0 .48.48 0 1 1-1 0 .19.19 0 0 0-.17 0l-2 .48a.19.19 0 0 0-.15.22l.25 1.25a.19.19 0 0 0 .19.15h.69v2.27a.19.19 0 0 0 .19.19h2.94a.19.19 0 0 0 .19-.19v-2.28h.69a.19.19 0 0 0 .19-.15l.25-1.25a.19.19 0 0 0-.07-.21zm-23.21 0l-2-.48a.19.19 0 0 0-.17 0 .48.48 0 1 1-1 0 .19.19 0 0 0-.17 0l-2 .48a.19.19 0 0 0-.15.22l.27 1.26a.19.19 0 0 0 .19.15h.69v2.27a.19.19 0 0 0 .19.19h3a.19.19 0 0 0 .19-.19v-2.29h.69a.19.19 0 0 0 .19-.15l.25-1.25a.19.19 0 0 0-.15-.21z"/></svg>
